<svg width="58" height="82" viewBox="0 0 58 82" fill="none" xmlns="http://www.w3.org/2000/svg">
<path d="M15 32H43V59C43 61.2091 41.2091 63 39 63H19C16.7909 63 15 61.2091 15 59V32Z" fill="#4CD62B"/>
<path d="M26.446 3.61036C28.0439 1.72142 30.9561 1.72141 32.5539 3.61036L51.2111 25.6667C53.4102 28.2665 51.5623 32.25 48.1571 32.25H10.8429C7.43771 32.25 5.58978 28.2665 7.78891 25.6667L26.446 3.61036Z" fill="#4CD62B"/>
<path d="M23 29H36V39C36 41.2091 34.2091 43 32 43H27C24.7909 43 23 41.2091 23 39V29Z" fill="#46BC2A"/>
<path d="M26.495 16.4203C28.0881 14.6071 30.9119 14.6071 32.505 16.4203L38.8216 23.6099C41.0924 26.1945 39.2571 30.25 35.8166 30.25H23.1834C19.7429 30.25 17.9076 26.1945 20.1784 23.6099L26.495 16.4203Z" fill="#46BC2A"/>
<rect x="15" y="65" width="28" height="5" rx="2.5" fill="#4CD62B"/>
<rect x="15" y="73" width="28" height="5" rx="2.5" fill="#4CD62B"/>
</svg>
